<svg xmlns="http://www.w3.org/2000/svg" width="709" height="551" viewBox="0 0 709 551" role="img" aria-label="Silhouette bianca di Trapani">
  <path d="M 708.0 0.0 L 457.0 0.0 L 455.0 6.0 L 450.0 11.0 L 442.0 15.0 L 433.0 16.0 L 422.0 11.0 L 414.0 12.0 L 404.0 26.0 L 400.0 28.0 L 401.0 35.0 L 399.0 43.0 L 388.0 61.0 L 375.0 76.0 L 358.0 92.0 L 353.0 99.0 L 339.0 109.0 L 325.0 108.0 L 321.0 111.0 L 301.0 111.0 L 303.0 112.0 L 302.0 118.0 L 304.0 119.0 L 309.0 130.0 L 308.0 140.0 L 305.0 144.0 L 305.0 151.0 L 296.0 161.0 L 293.0 160.0 L 293.0 166.0 L 290.0 171.0 L 277.0 184.0 L 266.0 191.0 L 252.0 207.0 L 250.0 207.0 L 248.0 203.0 L 238.0 210.0 L 238.0 212.0 L 240.0 212.0 L 241.0 215.0 L 236.0 219.0 L 232.0 219.0 L 232.0 214.0 L 230.0 214.0 L 212.0 225.0 L 211.0 230.0 L 205.0 232.0 L 191.0 244.0 L 180.0 250.0 L 161.0 255.0 L 152.0 256.0 L 148.0 253.0 L 144.0 254.0 L 140.0 251.0 L 141.0 245.0 L 126.0 247.0 L 129.0 247.0 L 130.0 250.0 L 127.0 252.0 L 123.0 252.0 L 121.0 250.0 L 121.0 246.0 L 106.0 242.0 L 101.0 237.0 L 101.0 235.0 L 98.0 236.0 L 94.0 230.0 L 88.0 225.0 L 95.0 234.0 L 95.0 236.0 L 101.0 241.0 L 99.0 246.0 L 94.0 251.0 L 75.0 264.0 L 72.0 264.0 L 65.0 258.0 L 59.0 257.0 L 56.0 254.0 L 57.0 251.0 L 53.0 250.0 L 55.0 255.0 L 64.0 259.0 L 64.0 263.0 L 67.0 263.0 L 71.0 268.0 L 79.0 269.0 L 81.0 272.0 L 87.0 273.0 L 90.0 277.0 L 93.0 286.0 L 103.0 284.0 L 105.0 282.0 L 94.0 285.0 L 91.0 280.0 L 91.0 275.0 L 95.0 273.0 L 97.0 275.0 L 97.0 280.0 L 98.0 275.0 L 95.0 272.0 L 93.0 272.0 L 91.0 268.0 L 84.0 266.0 L 82.0 263.0 L 83.0 260.0 L 92.0 254.0 L 105.0 256.0 L 104.0 272.0 L 106.0 276.0 L 108.0 276.0 L 108.0 274.0 L 111.0 273.0 L 111.0 279.0 L 116.0 279.0 L 116.0 273.0 L 120.0 272.0 L 121.0 277.0 L 122.0 274.0 L 125.0 273.0 L 126.0 280.0 L 120.0 282.0 L 134.0 283.0 L 140.0 285.0 L 132.0 282.0 L 134.0 273.0 L 151.0 275.0 L 153.0 280.0 L 155.0 281.0 L 155.0 284.0 L 158.0 286.0 L 161.0 280.0 L 165.0 279.0 L 175.0 283.0 L 184.0 283.0 L 185.0 288.0 L 188.0 288.0 L 189.0 285.0 L 195.0 286.0 L 196.0 284.0 L 208.0 285.0 L 209.0 282.0 L 218.0 282.0 L 219.0 284.0 L 224.0 283.0 L 225.0 286.0 L 233.0 286.0 L 235.0 283.0 L 242.0 283.0 L 244.0 286.0 L 250.0 285.0 L 253.0 282.0 L 255.0 282.0 L 255.0 277.0 L 257.0 274.0 L 261.0 274.0 L 261.0 278.0 L 259.0 279.0 L 261.0 285.0 L 260.0 289.0 L 252.0 289.0 L 236.0 294.0 L 235.0 299.0 L 244.0 300.0 L 245.0 305.0 L 247.0 306.0 L 247.0 317.0 L 242.0 321.0 L 236.0 321.0 L 231.0 317.0 L 228.0 318.0 L 224.0 314.0 L 221.0 317.0 L 216.0 316.0 L 215.0 318.0 L 186.0 316.0 L 176.0 304.0 L 171.0 305.0 L 168.0 302.0 L 167.0 304.0 L 174.0 309.0 L 174.0 313.0 L 170.0 314.0 L 160.0 305.0 L 154.0 308.0 L 146.0 301.0 L 145.0 302.0 L 157.0 311.0 L 160.0 320.0 L 159.0 329.0 L 161.0 336.0 L 161.0 351.0 L 164.0 351.0 L 171.0 358.0 L 172.0 367.0 L 168.0 376.0 L 165.0 402.0 L 162.0 414.0 L 158.0 422.0 L 160.0 433.0 L 156.0 434.0 L 155.0 442.0 L 149.0 454.0 L 137.0 456.0 L 133.0 460.0 L 135.0 471.0 L 122.0 484.0 L 112.0 483.0 L 107.0 485.0 L 95.0 500.0 L 95.0 513.0 L 100.0 513.0 L 104.0 521.0 L 118.0 522.0 L 119.0 525.0 L 97.0 536.0 L 89.0 536.0 L 83.0 530.0 L 64.0 530.0 L 63.0 550.0 L 708.0 550.0 Z" fill="#FFFFFF"/>
</svg>
