<svg xmlns="http://www.w3.org/2000/svg" width="1371" height="765" viewBox="0 0 1371 765">
<g>
<path d="M 981.58 689.75 C981.39,689.06 980.72,686.61 980.09,684.31 C979.34,681.55 977.64,678.99 975.12,676.81 C971.10,673.34 968.77,669.54 967.57,664.50 C967.17,662.85 964.43,656.52 961.48,650.44 C957.33,641.89 954.64,637.83 949.63,632.60 C945.69,628.48 940.33,621.07 935.95,613.67 C930.67,604.76 926.81,599.62 921.53,594.50 C915.75,588.88 914.10,586.60 913.19,582.93 C911.74,577.06 909.80,575.40 902.39,573.67 C899.07,572.89 895.39,571.75 894.22,571.12 C891.19,569.49 887.53,564.19 886.20,559.48 C885.26,556.18 884.11,554.89 879.78,552.31 C868.52,545.61 851.27,540.17 838.00,539.14 C826.80,538.27 822.78,536.09 826.57,532.95 C835.38,525.63 830.30,501.89 819.21,498.53 C817.55,498.03 815.60,498.69 812.12,500.92 C809.48,502.61 806.83,504.00 806.23,504.00 C805.63,504.00 803.85,502.09 802.28,499.75 C796.28,490.78 786.57,491.04 777.80,500.41 C773.17,505.36 773.03,505.42 769.29,504.42 C763.78,502.95 760.78,504.00 758.86,508.04 C757.32,511.29 756.88,511.53 751.37,512.00 C746.19,512.44 745.36,512.82 744.20,515.25 C743.07,517.62 743.16,518.99 744.85,524.96 C746.56,530.98 746.63,532.06 745.37,533.11 C744.21,534.07 743.36,533.76 740.96,531.46 C735.96,526.67 734.00,521.36 734.00,512.62 C734.00,503.57 733.06,501.34 728.45,499.42 C723.79,497.47 723.71,497.49 718.50,502.00 C712.73,506.99 708.37,507.49 707.42,503.25 C704.77,491.49 704.89,491.57 696.64,495.47 C690.41,498.43 687.01,502.66 685.50,509.40 C684.88,512.13 683.73,514.70 682.94,515.13 C682.15,515.55 677.22,517.76 672.00,520.02 C666.78,522.29 661.94,524.87 661.25,525.76 C659.30,528.29 659.83,533.12 662.53,537.50 C665.63,542.54 665.61,542.96 662.15,547.31 C660.59,549.27 658.09,554.22 656.61,558.29 C654.80,563.25 652.59,567.06 649.91,569.85 C645.95,573.98 645.88,574.00 640.21,573.44 C631.11,572.54 630.05,572.13 627.97,568.72 C624.00,562.21 624.81,560.72 638.35,549.69 C644.28,544.86 647.39,538.71 650.56,525.52 C651.95,519.76 654.19,512.55 655.54,509.50 C656.89,506.44 658.00,502.89 658.00,501.61 C658.00,498.63 655.02,494.85 648.79,489.93 C644.03,486.17 643.69,486.06 638.05,486.65 C632.60,487.22 631.85,487.03 626.34,483.63 C619.37,479.33 614.53,479.00 603.50,482.06 C599.65,483.13 592.22,484.91 587.00,486.01 C575.53,488.43 572.99,489.38 566.41,493.67 C563.60,495.49 559.78,497.28 557.91,497.63 C556.03,497.99 553.60,498.77 552.50,499.38 C551.40,499.98 545.33,500.73 539.00,501.05 C519.37,502.03 516.88,504.13 513.10,522.86 C511.17,532.43 510.17,534.29 506.27,535.45 C504.35,536.03 503.72,535.46 501.77,531.39 C500.28,528.27 498.30,526.00 496.00,524.74 C490.60,521.80 489.10,519.88 488.12,514.61 C487.62,511.94 486.60,509.35 485.86,508.87 C482.04,506.38 479.67,506.77 470.63,511.34 C465.61,513.88 459.12,516.87 456.20,517.98 C446.96,521.52 442.67,524.12 436.34,530.01 C431.49,534.54 429.07,536.02 424.88,537.03 C421.96,537.73 417.57,539.19 415.14,540.26 C409.73,542.66 402.14,542.23 398.18,539.31 C396.70,538.22 394.07,534.90 392.33,531.92 C387.58,523.83 385.00,520.90 381.22,519.32 C378.24,518.07 377.52,518.08 375.52,519.40 C374.25,520.22 372.50,523.01 371.62,525.59 C367.77,536.90 359.68,546.00 353.47,546.00 C350.64,546.00 349.77,546.49 349.00,548.50 C347.80,551.66 347.49,551.64 343.35,548.00 C339.41,544.55 334.32,543.91 333.32,546.75 C332.36,549.48 328.82,553.00 327.05,553.00 C326.17,553.00 324.39,553.74 323.09,554.65 C320.91,556.18 320.68,556.18 319.82,554.65 C319.32,553.74 318.25,553.00 317.45,553.00 C315.64,553.00 315.63,552.10 317.41,547.87 C318.65,544.92 318.63,544.19 317.25,541.84 C316.38,540.37 314.62,538.69 313.33,538.11 C311.84,537.42 311.00,536.19 311.00,534.66 C311.00,531.80 307.73,527.36 304.97,526.49 C303.52,526.03 303.00,524.97 303.00,522.46 C303.00,518.85 300.87,517.09 294.72,515.61 C290.21,514.53 288.00,511.58 288.00,506.62 C288.00,502.66 287.70,502.12 284.88,500.95 C282.50,499.96 281.38,499.93 280.13,500.82 C276.40,503.46 272.88,505.04 271.97,504.48 C271.44,504.15 271.00,502.10 271.00,499.93 C271.00,496.72 270.14,494.92 266.50,490.45 C260.88,483.55 258.00,477.98 258.00,474.03 C258.00,470.20 261.58,467.81 271.50,464.98 C275.35,463.88 280.30,462.08 282.50,460.99 C284.70,459.89 287.62,458.99 289.00,458.98 C293.02,458.96 294.24,457.53 294.75,452.25 C295.36,445.95 294.34,444.15 287.07,438.55 C280.83,433.75 277.55,432.98 273.71,435.40 C272.50,436.17 269.92,437.10 268.00,437.47 C266.08,437.83 260.83,439.26 256.35,440.65 C246.23,443.78 245.05,443.30 242.07,434.79 C240.86,431.33 238.94,426.25 237.80,423.50 C236.67,420.75 235.61,416.92 235.45,415.00 C235.30,413.08 234.20,408.84 233.02,405.59 C231.84,402.34 230.36,395.87 229.74,391.22 L 228.61 382.77 L 231.81 380.14 C235.18,377.37 236.05,373.45 233.80,371.20 C231.98,369.38 237.40,369.64 241.10,371.55 C242.99,372.53 246.02,372.99 249.29,372.80 C253.90,372.53 254.64,372.17 255.86,369.61 C257.11,367.00 256.99,366.12 254.62,360.34 C250.57,350.48 244.37,343.25 237.60,340.50 C229.44,337.18 227.00,335.34 227.00,332.50 C227.00,330.85 226.10,329.57 224.25,328.57 C219.66,326.09 211.84,318.08 212.19,316.22 C212.36,315.27 214.05,313.73 215.94,312.78 C217.83,311.84 220.27,310.17 221.36,309.08 C223.14,307.30 223.22,306.68 222.15,303.09 C221.49,300.89 220.52,298.82 219.99,298.50 C219.47,298.17 216.71,298.60 213.87,299.45 C208.15,301.14 206.62,300.59 205.59,296.49 C204.86,293.58 201.67,291.65 198.99,292.50 C197.92,292.84 196.11,294.44 194.96,296.06 C193.81,297.68 192.39,299.00 191.81,299.00 C190.11,299.00 183.82,304.43 179.26,309.84 C177.21,312.28 175.23,313.41 171.99,314.00 C164.33,315.40 163.77,314.56 164.16,302.33 C164.50,291.92 164.53,291.81 167.75,288.93 C169.61,287.27 172.69,285.75 174.94,285.39 C179.41,284.68 180.45,283.08 178.81,279.48 C177.29,276.14 178.19,275.53 181.86,277.43 C186.87,280.02 190.51,279.44 195.06,275.33 C200.56,270.36 202.35,266.65 201.68,261.63 C201.16,257.75 201.37,257.36 206.58,252.54 C210.59,248.82 212.01,246.79 212.01,244.80 C211.99,239.91 214.11,232.13 216.33,228.93 C217.78,226.83 220.64,224.91 224.97,223.13 C229.56,221.24 232.11,219.47 233.73,217.08 C238.86,209.46 239.84,197.52 235.95,189.91 L 233.74 185.58 L 236.92 182.93 C242.37,178.38 250.93,174.78 257.57,174.24 C264.42,173.69 269.39,175.01 281.81,180.67 C285.90,182.54 292.40,184.94 296.26,186.00 C300.12,187.07 304.31,188.63 305.57,189.45 C309.94,192.32 312.92,197.47 314.47,204.88 C315.31,208.87 316.41,212.89 316.91,213.82 C319.78,219.15 327.83,222.51 334.25,221.05 C340.93,219.54 345.34,216.08 353.46,206.00 C361.91,195.51 365.09,192.67 369.30,191.89 C386.08,188.79 402.12,179.67 422.00,161.95 C426.12,158.28 430.56,154.72 431.85,154.04 C433.15,153.37 438.10,152.52 442.85,152.16 L 451.50 151.50 L 455.16 140.88 C459.13,129.34 461.90,124.30 468.67,116.30 C474.77,109.09 475.99,106.35 475.99,99.82 C476.00,93.52 477.58,91.00 481.51,91.00 C482.82,91.00 484.14,90.59 484.45,90.08 C484.76,89.57 488.73,87.93 493.26,86.42 C503.91,82.88 508.37,79.85 512.86,73.13 C514.86,70.13 517.72,66.77 519.20,65.68 L 521.90 63.68 L 526.23 66.09 C537.09,72.13 536.50,71.31 536.50,80.37 C536.50,88.40 536.55,88.57 540.64,93.70 C542.92,96.57 545.54,101.29 546.45,104.20 C549.06,112.48 553.99,118.46 561.21,122.11 C567.88,125.48 579.20,135.60 581.78,140.50 C582.64,142.15 584.15,146.20 585.13,149.50 C586.11,152.80 588.13,158.99 589.62,163.26 C592.31,171.01 592.32,171.06 591.02,182.29 C589.77,193.14 589.80,193.70 591.86,197.72 C593.03,200.01 596.08,203.60 598.63,205.69 C601.19,207.79 604.42,210.44 605.82,211.60 C607.96,213.38 608.33,214.48 608.23,218.85 C608.16,222.08 607.11,226.24 605.42,230.01 C603.12,235.12 602.81,236.88 603.32,241.77 C604.10,249.21 606.16,254.96 610.96,263.00 C613.09,266.58 616.27,273.91 618.02,279.30 C622.53,293.13 625.68,297.36 635.50,302.75 C639.90,305.16 644.28,307.85 645.25,308.72 C648.06,311.27 653.00,322.03 653.00,325.60 C653.00,329.94 654.14,330.44 658.36,327.95 L 661.88 325.88 L 664.04 328.04 C665.22,329.22 667.32,332.74 668.69,335.85 C670.22,339.32 673.65,344.07 677.59,348.15 C683.98,354.78 684.00,354.83 684.01,360.65 C684.02,374.98 689.00,380.36 699.96,377.90 C706.05,376.53 709.64,373.65 712.68,367.66 C716.11,360.93 717.04,349.91 714.58,345.15 C713.45,342.97 713.13,340.84 713.57,338.46 C714.69,332.51 709.92,329.60 706.67,334.25 C705.12,336.47 705.10,336.46 705.05,332.83 C705.01,329.68 704.26,328.50 699.77,324.58 C695.75,321.06 695.00,320.00 696.54,320.00 C698.72,320.00 701.64,321.76 706.78,326.18 C710.82,329.65 712.66,329.71 717.00,326.50 C719.65,324.54 721.59,324.00 725.94,324.00 C737.58,323.99 774.51,315.71 778.30,312.25 C781.60,309.25 784.40,308.04 790.75,306.88 C793.91,306.30 801.67,303.89 808.00,301.53 C826.10,294.78 839.98,290.75 842.90,291.41 C853.57,293.83 866.16,296.00 869.57,296.00 C873.62,296.00 876.24,295.32 891.51,290.32 C897.62,288.31 900.45,287.86 903.43,288.42 C908.34,289.34 912.73,293.87 913.52,298.82 C914.36,304.10 915.16,305.21 920.09,307.97 C923.45,309.85 926.17,310.48 931.50,310.63 L 938.50 310.82 L 942.50 317.64 L 946.50 324.45 L 946.57 339.12 C946.65,353.57 946.69,353.84 949.36,357.02 C953.29,361.69 954.61,364.63 956.99,374.07 C960.59,388.33 961.61,389.76 976.33,401.15 C993.71,414.60 997.60,418.38 1001.10,425.24 C1005.70,434.28 1013.40,438.00 1027.50,438.00 C1031.70,438.00 1034.54,438.90 1041.89,442.55 C1052.65,447.90 1056.75,451.26 1062.11,459.17 C1066.46,465.57 1069.71,467.72 1076.41,468.64 C1082.06,469.42 1096.26,467.39 1101.61,465.04 C1108.26,462.12 1113.08,454.55 1115.02,443.96 C1115.67,440.41 1116.42,436.38 1116.69,435.00 L 1117.17 432.50 L 1119.19 435.00 C1120.31,436.37 1122.58,440.19 1124.25,443.49 C1125.92,446.81 1130.74,453.19 1135.04,457.79 C1139.45,462.50 1143.93,468.46 1145.40,471.56 C1150.48,482.30 1158.79,514.70 1157.64,519.29 C1157.30,520.66 1154.99,524.48 1152.51,527.78 C1147.60,534.30 1147.25,535.51 1149.48,537.98 C1150.80,539.44 1150.65,540.38 1148.05,546.56 C1145.60,552.42 1144.90,556.14 1143.60,570.50 C1141.81,590.16 1140.45,595.46 1134.36,606.67 C1131.06,612.75 1129.29,617.73 1127.43,626.17 C1126.06,632.40 1124.31,639.08 1123.53,641.00 C1122.75,642.92 1121.41,646.97 1120.55,650.00 C1119.69,653.03 1118.43,656.19 1117.74,657.04 C1115.44,659.89 1109.33,664.00 1107.41,663.99 C1106.26,663.98 1102.14,660.17 1097.11,654.48 C1090.11,646.55 1087.90,644.70 1083.71,643.24 C1080.44,642.11 1077.10,639.85 1074.10,636.76 C1070.63,633.17 1068.77,632.01 1066.50,632.01 C1061.30,632.01 1055.93,634.03 1052.30,637.37 C1049.20,640.20 1048.70,641.35 1048.09,647.04 C1047.71,650.59 1046.85,654.50 1046.18,655.72 C1044.44,658.89 1037.45,662.62 1030.73,663.98 C1022.67,665.61 1017.46,669.87 1012.50,678.88 C1007.51,687.94 1005.51,689.18 997.25,688.38 C992.41,687.90 990.45,688.13 988.54,689.38 C985.60,691.31 982.08,691.49 981.58,689.75 ZM 343.18 573.25 C343.45,570.96 344.04,570.45 346.75,570.19 C348.54,570.01 350.00,570.25 350.00,570.71 C350.00,572.64 346.74,576.00 344.88,576.00 C343.27,576.00 342.93,575.44 343.18,573.25 ZM 471.00 573.85 C469.08,572.67 466.10,571.32 464.38,570.84 C461.59,570.07 461.20,569.50 460.75,565.45 C460.47,562.96 459.51,560.11 458.62,559.13 C456.21,556.46 456.64,555.68 460.14,556.38 C464.16,557.18 466.00,555.65 466.00,551.50 C466.00,547.75 467.41,546.27 471.85,545.38 C475.41,544.67 475.64,545.09 473.46,548.42 C472.03,550.60 472.10,550.96 474.37,553.67 C475.72,555.27 479.11,557.65 481.91,558.96 C487.50,561.58 488.33,563.76 485.23,567.69 C483.37,570.05 476.12,576.00 475.11,576.00 C474.78,575.99 472.92,575.03 471.00,573.85 ZM 352.62 564.88 C352.28,563.16 352.01,561.02 352.03,560.12 C352.09,557.42 356.00,562.83 356.00,565.61 C356.00,569.12 353.36,568.55 352.62,564.88 Z" fill="#fff"/>
</g>
</svg>