<svg xmlns="http://www.w3.org/2000/svg" width="1185" height="885" viewBox="0 0 1185 885">
<g>
<path d="M 632.71 839.07 C631.09,838.03 627.05,837.04 623.02,836.70 C615.21,836.05 614.05,835.57 607.90,830.39 C601.93,825.38 594.03,821.89 588.26,821.73 C585.64,821.66 576.19,821.98 567.25,822.45 C548.50,823.44 549.78,823.91 542.96,813.43 C539.31,807.83 538.24,806.91 533.67,805.42 C530.83,804.49 526.70,802.79 524.50,801.65 C519.01,798.81 503.87,797.01 494.04,798.03 L 489.59 798.50 L 486.01 792.00 C476.13,774.07 468.06,764.48 456.24,756.61 C446.01,749.80 441.00,744.13 441.00,739.35 C441.00,737.70 439.36,735.31 436.02,732.11 L 431.04 727.33 L 431.98 720.92 C432.50,717.39 433.22,713.03 433.58,711.24 C434.18,708.25 433.69,707.42 427.61,700.97 C421.72,694.72 421.00,693.53 421.00,689.93 C421.00,687.71 420.28,684.46 419.40,682.70 C417.31,678.53 404.01,665.00 402.00,665.00 C397.29,665.00 386.82,651.07 384.85,642.17 C384.16,639.05 380.75,631.03 377.27,624.35 C371.84,613.93 370.86,611.23 370.37,605.35 C369.90,599.85 368.72,596.25 364.35,587.04 C361.36,580.73 358.46,573.57 357.92,571.12 C357.37,568.68 355.42,563.49 353.60,559.59 C341.46,533.66 338.81,527.38 336.07,518.08 C334.38,512.34 333.00,505.34 333.00,502.52 C333.00,498.62 332.40,496.58 330.50,494.00 C327.51,489.94 327.48,489.56 329.85,486.15 C330.87,484.69 332.65,480.35 333.81,476.50 C337.31,464.87 340.51,457.98 344.67,453.12 C349.84,447.09 356.77,436.79 358.57,432.48 C359.36,430.60 360.01,427.59 360.02,425.78 C360.05,421.47 362.84,415.53 367.36,410.15 C372.19,404.40 372.63,402.16 369.98,396.96 C367.09,391.30 365.08,385.55 363.96,379.74 C363.19,375.72 363.37,374.36 365.09,371.05 C366.21,368.90 367.38,364.72 367.68,361.77 C368.18,356.98 367.88,355.75 364.90,350.47 C361.62,344.66 360.88,340.28 360.81,326.18 C360.80,324.91 362.17,321.76 363.86,319.18 C365.54,316.61 368.77,311.24 371.05,307.25 C373.58,302.80 375.82,300.00 376.84,300.01 C380.18,300.03 388.70,304.87 396.50,311.19 C411.66,323.47 411.80,323.52 425.00,323.34 C442.00,323.10 450.85,321.60 458.76,317.63 C462.47,315.77 466.99,313.93 468.80,313.53 C470.62,313.14 473.83,311.17 475.94,309.16 C481.05,304.29 483.60,295.45 484.36,280.00 L 484.92 268.50 L 489.96 264.00 C496.10,258.52 497.18,255.23 496.37,244.54 L 495.76 236.50 L 500.63 230.18 C503.31,226.71 506.36,222.44 507.42,220.68 C508.48,218.93 512.25,213.07 515.81,207.65 C523.13,196.49 523.07,196.77 525.06,166.00 C526.60,142.29 527.43,133.61 528.27,132.31 C528.70,131.66 528.75,129.26 528.38,126.99 C527.79,123.27 527.49,122.91 525.38,123.44 C523.21,123.99 523.09,123.80 523.65,120.76 C524.01,118.80 526.13,115.51 528.97,112.50 C535.81,105.26 537.40,102.07 541.93,86.49 C544.17,78.80 546.79,70.03 547.75,67.00 L 549.50 61.50 L 561.50 61.00 C571.12,60.60 574.16,60.10 576.82,58.50 C579.96,56.61 580.22,56.60 581.43,58.24 C582.13,59.19 583.23,63.17 583.88,67.07 C584.52,70.98 586.22,76.95 587.66,80.34 C589.96,85.76 590.40,88.66 591.28,104.50 C591.83,114.40 592.34,126.93 592.40,132.34 L 592.52 142.18 L 595.76 143.54 C599.55,145.14 599.78,147.02 597.81,160.64 C596.68,168.47 596.76,169.45 599.45,180.19 C602.98,194.27 603.25,194.83 608.19,198.50 C621.03,208.04 623.88,209.72 628.09,210.28 C633.60,211.01 635.91,213.60 642.23,226.20 C648.34,238.38 654.27,254.40 658.62,270.50 C661.68,281.83 662.24,285.70 662.94,300.63 C663.86,320.29 665.20,324.60 673.17,333.50 C675.63,336.25 677.93,339.27 678.28,340.22 C678.63,341.16 678.45,345.89 677.88,350.72 C676.93,358.75 677.02,359.92 678.94,364.38 C682.31,372.21 685.17,386.71 685.48,397.50 C685.80,408.83 689.58,428.48 694.10,442.30 C696.07,448.33 699.29,454.90 703.74,461.93 C715.09,479.90 714.89,479.72 720.19,477.53 C721.55,476.97 722.00,477.57 722.52,480.67 C723.70,487.66 727.17,497.31 734.80,514.79 C740.83,528.61 743.11,532.77 746.18,535.54 C748.28,537.44 750.64,539.00 751.42,539.00 C752.20,539.00 753.66,537.32 754.67,535.26 C756.06,532.43 757.39,531.28 760.17,530.51 C762.19,529.96 764.92,528.48 766.24,527.24 C768.89,524.75 770.00,525.15 770.00,528.60 C770.00,529.99 770.78,531.11 772.01,531.50 C773.12,531.85 777.28,535.37 781.26,539.32 C789.05,547.04 802.60,567.26 811.31,584.17 C813.96,589.30 817.32,595.53 818.77,598.00 C820.23,600.47 821.67,604.52 821.96,606.99 L 822.50 611.47 L 828.93 613.21 C834.22,614.63 836.15,614.74 839.86,613.81 L 844.36 612.67 L 848.43 617.31 C850.67,619.87 854.52,623.01 856.98,624.30 L 861.46 626.64 L 862.60 635.07 C863.54,642.01 864.37,644.42 867.30,648.74 C870.88,654.02 873.78,663.51 872.69,666.37 C871.99,668.19 864.89,672.00 862.20,672.00 C858.70,672.00 848.57,667.97 841.83,663.90 C833.64,658.95 830.61,658.97 827.18,664.00 C825.12,667.03 824.87,668.30 825.34,673.53 C825.64,676.84 827.29,683.07 829.01,687.37 C830.73,691.67 833.75,702.21 835.71,710.79 L 839.28 726.40 L 837.52 731.58 L 835.76 736.76 L 838.88 746.13 C843.31,759.44 843.08,761.90 837.13,764.92 C831.74,767.65 822.95,769.33 816.71,768.81 C812.13,768.43 809.01,767.10 798.35,761.00 C782.58,751.98 751.18,735.86 744.79,733.50 C738.38,731.13 735.62,732.00 733.61,737.02 C731.80,741.54 729.42,756.15 728.41,769.00 C727.99,774.26 726.85,779.64 725.42,783.10 C723.69,787.27 721.00,801.06 721.00,805.72 C721.00,806.80 715.31,805.52 709.00,803.03 C699.15,799.14 697.17,799.20 693.00,803.50 C691.13,805.42 689.26,807.00 688.84,807.00 C688.42,807.00 687.53,805.09 686.87,802.75 C685.17,796.79 683.80,795.51 673.71,790.46 C663.42,785.31 659.04,784.83 653.91,788.28 C646.08,793.56 644.58,801.23 647.45,821.44 C649.02,832.55 648.47,834.91 643.39,838.91 C640.19,841.43 636.48,841.48 632.71,839.07 ZM 464.50 810.45 C456.64,806.53 455.00,804.87 455.00,800.79 C455.00,798.76 455.69,797.64 457.42,796.85 C460.76,795.33 465.19,796.38 474.00,800.77 C483.23,805.36 483.94,807.29 477.84,811.25 C475.51,812.76 473.13,813.99 472.55,813.97 C471.97,813.95 468.35,812.37 464.50,810.45 Z" fill="#fff"/>
</g>
</svg>