<svg xmlns="http://www.w3.org/2000/svg" width="1371" height="765" viewBox="0 0 1371 765">
<g>
<path d="M 937.27 705.79 C935.80,705.08 934.84,703.48 934.45,701.11 C933.25,693.62 928.75,686.99 921.48,681.99 C917.69,679.38 916.59,679.09 912.54,679.65 C908.60,680.19 907.61,679.96 905.90,678.12 C904.63,676.76 904.11,675.24 904.49,674.03 C905.17,671.89 902.41,669.61 897.75,668.46 C894.37,667.63 894.35,667.05 897.50,662.40 C898.88,660.38 900.00,657.46 900.00,655.92 C900.00,654.38 900.45,652.84 901.00,652.50 C902.89,651.33 902.10,645.44 899.75,643.24 C897.22,640.86 889.35,637.06 886.89,637.02 C886.01,637.01 880.62,639.04 874.92,641.53 C869.22,644.03 860.14,647.47 854.74,649.18 C845.44,652.13 844.86,652.20 843.63,650.51 C842.31,648.70 841.97,648.71 832.81,650.64 C831.30,650.96 828.13,650.45 825.59,649.48 C823.10,648.53 819.82,647.99 818.30,648.28 C816.78,648.57 814.27,648.15 812.71,647.35 C810.78,646.35 808.52,646.10 805.51,646.55 C801.19,647.20 801.07,647.13 795.92,641.60 C793.05,638.52 789.98,636.00 789.10,635.99 C788.22,635.99 786.15,635.09 784.50,634.00 C780.55,631.38 779.22,631.48 774.48,634.74 C768.93,638.57 760.55,638.78 753.50,635.27 C747.55,632.31 744.00,629.24 744.00,627.08 C744.00,624.88 735.51,616.33 729.46,612.45 C720.92,606.96 710.90,605.50 702.50,608.53 C696.79,610.58 696.44,610.49 691.06,605.46 C686.11,600.83 681.96,599.00 676.39,599.00 C673.29,599.00 670.74,601.08 663.83,609.26 C661.91,611.54 660.42,612.13 655.31,612.65 L 649.13 613.27 L 636.31 601.19 C629.27,594.55 621.92,587.95 620.00,586.53 C603.59,574.42 600.89,573.00 594.29,573.00 C589.53,573.00 580.72,569.38 577.86,566.25 C573.89,561.90 567.87,552.96 565.87,548.45 C564.29,544.87 564.19,543.49 565.13,538.15 C566.06,532.89 565.98,531.61 564.59,529.49 C562.44,526.22 555.97,525.94 553.87,529.02 C552.65,530.83 552.16,530.92 549.30,529.82 C546.51,528.76 545.83,528.84 544.03,530.47 C542.00,532.31 541.90,532.30 538.91,530.09 C537.03,528.70 533.79,527.63 530.41,527.28 C525.74,526.80 525.04,526.46 525.53,524.92 C526.31,522.46 522.75,520.68 518.78,521.55 C517.07,521.92 514.47,523.55 513.00,525.17 C511.52,526.78 508.23,528.73 505.68,529.50 C501.25,530.83 500.97,530.79 499.52,528.72 C497.52,525.87 497.60,523.71 499.82,520.97 C501.48,518.92 501.95,518.83 505.27,519.92 C509.32,521.26 519.10,519.99 521.76,517.79 C522.57,517.11 524.74,516.50 526.57,516.44 C531.05,516.29 533.31,514.29 532.65,511.06 C530.84,502.25 528.25,494.54 524.51,486.87 C523.73,485.26 523.57,483.71 524.11,482.87 C524.60,482.12 524.74,480.27 524.42,478.77 C523.94,476.49 524.67,475.17 528.82,470.77 C535.58,463.60 541.93,455.02 542.70,452.02 C544.06,446.68 533.43,434.00 527.58,434.00 C526.11,434.00 524.90,433.08 524.13,431.38 C523.13,429.19 522.47,428.86 520.05,429.34 C518.10,429.73 516.76,429.41 515.87,428.35 C515.16,427.48 513.67,426.44 512.57,426.04 C509.60,424.94 510.23,416.30 513.49,413.50 C516.90,410.57 516.50,403.07 512.62,397.07 C510.76,394.21 510.06,392.20 510.62,391.41 C511.10,390.74 512.85,388.10 514.50,385.53 C516.15,382.97 518.77,379.44 520.32,377.68 C522.74,374.96 523.08,373.87 522.68,370.14 C522.40,367.48 521.38,364.94 520.07,363.64 L 517.91 361.50 L 512.96 364.25 C510.23,365.76 506.85,367.00 505.45,367.00 C504.05,367.00 501.57,367.69 499.94,368.53 C497.80,369.64 495.58,369.88 491.97,369.40 C486.48,368.67 486.88,369.30 485.03,358.58 C484.47,355.32 483.33,351.62 482.50,350.36 C479.83,346.28 480.58,343.29 485.00,340.50 C487.20,339.11 489.00,337.41 489.00,336.73 C489.00,336.04 486.52,333.50 483.50,331.09 C480.34,328.57 478.00,325.90 478.00,324.82 C478.00,322.43 471.19,308.00 470.06,308.00 C469.59,308.00 467.84,306.72 466.16,305.15 C464.49,303.59 461.96,301.55 460.54,300.62 C456.92,298.25 452.04,290.10 452.02,286.39 C452.01,284.15 453.19,281.91 456.24,278.39 C458.58,275.70 461.23,272.94 462.14,272.26 C463.05,271.58 464.82,268.57 466.06,265.57 C467.88,261.17 468.83,260.04 470.90,259.80 C473.13,259.54 473.57,258.86 474.28,254.63 C474.94,250.66 474.77,249.40 473.39,247.88 C472.45,246.84 470.91,246.00 469.97,246.00 C469.02,246.00 467.68,245.32 467.00,244.50 C465.38,242.55 462.49,242.60 459.03,244.64 C457.25,245.69 455.31,246.04 453.63,245.62 C451.44,245.07 451.00,244.40 451.00,241.58 C451.00,239.19 449.96,236.90 447.48,233.84 C445.55,231.46 442.62,227.84 440.98,225.82 C437.67,221.72 437.34,220.47 439.38,219.68 C441.32,218.94 440.82,206.64 438.66,201.78 C436.42,196.77 436.56,195.52 439.50,194.18 C442.72,192.71 442.68,190.41 439.37,187.67 C437.92,186.48 435.18,184.06 433.27,182.31 C431.37,180.55 428.51,178.83 426.91,178.48 C422.71,177.56 421.77,175.22 424.26,171.87 C426.17,169.28 426.20,168.95 424.69,166.64 C423.49,164.82 423.23,162.88 423.67,159.16 C424.26,154.14 424.26,154.14 420.63,152.62 C417.60,151.35 417.00,150.61 417.00,148.10 C417.00,144.78 414.68,135.16 413.19,132.32 C412.67,131.32 411.50,127.20 410.59,123.17 C408.67,114.65 406.95,111.62 403.20,110.13 C398.58,108.30 394.58,110.08 386.25,117.65 C380.31,123.04 378.08,125.80 377.15,128.88 C375.80,133.41 373.68,135.00 369.02,135.00 C362.37,135.00 357.97,130.66 359.62,125.75 C360.74,122.44 360.11,119.81 357.53,117.00 C355.49,114.78 355.18,113.21 354.73,103.00 C354.45,96.68 353.69,90.17 353.05,88.54 C351.28,84.03 352.48,81.19 356.91,79.42 C360.00,78.18 361.11,77.00 362.44,73.53 C363.35,71.14 364.35,67.59 364.67,65.65 C365.60,59.90 368.27,60.15 378.50,66.93 C383.98,70.57 387.32,71.95 395.55,73.99 C404.19,76.12 413.30,74.96 417.29,71.20 C420.01,68.64 421.31,68.45 428.30,69.54 C432.70,70.22 433.34,70.05 436.04,67.47 C437.65,65.91 439.10,64.84 439.24,65.07 C439.38,65.31 440.00,66.40 440.60,67.50 C441.36,68.87 442.94,69.59 445.62,69.80 C448.81,70.04 450.75,69.32 455.95,65.96 L 462.35 61.82 L 470.24 64.07 C474.58,65.30 479.24,67.19 480.60,68.26 C482.21,69.52 483.89,69.99 485.42,69.61 C486.93,69.23 488.24,69.59 489.09,70.61 C490.00,71.70 491.41,72.03 493.64,71.67 C495.76,71.33 497.28,71.64 498.06,72.57 C498.84,73.52 501.11,73.96 504.87,73.88 C511.82,73.75 520.65,75.25 522.22,76.82 C523.83,78.43 526.76,78.30 532.37,76.39 C536.42,75.01 538.24,74.95 545.29,75.96 C554.56,77.30 567.89,80.84 577.82,84.60 C586.59,87.92 602.38,91.64 615.67,93.50 C630.10,95.53 630.76,95.47 634.00,92.00 C638.50,87.18 643.47,88.00 647.30,94.19 C649.41,97.59 654.54,98.36 657.61,95.73 C659.41,94.18 660.12,94.10 662.41,95.14 C664.68,96.18 665.58,96.09 668.13,94.58 C671.08,92.84 671.21,92.85 673.47,94.97 C675.44,96.83 676.48,97.05 680.38,96.47 C684.10,95.91 685.65,96.19 688.65,97.96 C695.02,101.72 699.31,98.68 702.00,88.50 C702.72,85.75 704.64,80.84 706.26,77.58 C708.59,72.89 709.07,70.86 708.59,67.84 C707.76,62.64 710.35,59.99 716.25,60.02 C723.60,60.04 733.55,64.74 735.75,69.22 C737.86,73.51 737.88,83.08 735.80,88.50 C732.60,96.81 730.57,98.51 721.08,100.89 C708.19,104.11 706.29,105.89 702.87,117.98 L 700.84 125.16 L 703.32 128.83 C704.68,130.85 706.12,133.62 706.52,135.00 C706.91,136.38 708.70,139.98 710.49,143.00 C712.28,146.02 714.55,150.23 715.53,152.35 C717.23,156.01 717.24,156.33 715.57,159.14 C713.97,161.85 713.96,162.29 715.42,164.51 C716.29,165.84 717.00,167.54 717.00,168.28 C717.00,169.79 721.05,173.73 725.33,176.40 C728.23,178.20 730.59,182.62 731.69,188.30 C732.03,190.06 733.66,193.42 735.33,195.76 C738.68,200.47 738.71,199.53 734.62,218.36 C733.63,222.91 733.44,226.02 734.04,227.61 C734.54,228.92 734.69,231.29 734.37,232.88 C734.06,234.46 734.31,236.71 734.94,237.88 C735.78,239.46 735.79,241.08 734.96,244.13 C734.01,247.68 734.16,249.09 736.04,254.10 C737.86,258.97 738.03,260.46 737.10,263.14 C735.60,267.45 738.31,272.85 743.14,275.17 C745.51,276.30 747.12,278.07 748.18,280.67 C750.82,287.15 752.00,291.51 752.00,294.72 C752.00,298.03 754.76,301.52 761.25,306.41 C763.31,307.97 765.00,309.97 765.00,310.87 C765.00,313.61 773.50,323.52 780.95,329.46 C788.82,335.74 792.00,340.80 792.00,347.03 C792.00,352.48 793.12,354.41 800.41,361.50 C804.74,365.70 806.96,368.76 807.82,371.70 C809.63,377.88 813.24,380.00 826.12,382.47 C827.56,382.75 832.49,385.46 837.08,388.49 C845.44,394.03 846.80,395.78 848.39,403.07 C848.70,404.49 850.11,407.35 851.52,409.44 C852.94,411.53 853.93,413.40 853.72,413.61 C853.51,413.82 851.58,412.65 849.42,411.02 C844.57,407.35 843.99,407.33 840.82,410.75 C834.57,417.47 834.52,417.79 837.99,428.68 C841.94,441.04 843.01,442.71 851.50,449.90 C856.18,453.86 861.00,460.54 861.00,463.07 C861.00,464.05 862.66,467.02 864.70,469.67 C868.01,474.00 877.80,489.76 882.17,497.80 C883.08,499.49 885.65,502.02 887.87,503.42 C892.76,506.51 893.79,508.28 894.39,514.62 C895.02,521.40 895.52,522.31 900.55,525.93 C906.54,530.23 906.88,532.08 904.41,547.09 C903.64,551.76 906.99,562.75 911.40,570.00 C917.57,580.14 918.06,581.57 917.83,588.74 C917.70,592.46 917.06,596.17 916.39,597.00 C915.72,597.83 914.87,600.60 914.49,603.17 C913.82,607.69 913.90,607.90 916.98,609.49 C919.30,610.69 919.98,611.59 919.50,612.82 C915.87,622.05 915.81,622.75 918.41,626.85 C919.76,629.00 922.40,631.70 924.26,632.85 C926.13,634.01 928.84,637.12 930.28,639.77 C934.39,647.32 939.44,652.00 943.49,652.00 C945.36,652.00 947.18,651.52 947.54,650.93 C947.95,650.27 949.72,650.11 952.16,650.53 C955.48,651.09 956.75,650.76 960.09,648.44 C963.12,646.34 964.35,645.95 965.24,646.84 C965.88,647.48 967.43,648.00 968.68,648.00 C970.29,648.00 971.15,648.75 971.60,650.53 C972.32,653.43 975.12,655.27 977.45,654.38 C978.32,654.05 980.30,654.30 981.85,654.94 C984.10,655.87 985.56,655.80 989.08,654.57 C994.82,652.57 1002.86,652.58 1006.89,654.59 C1009.82,656.06 1010.42,656.05 1014.23,654.53 C1017.64,653.16 1018.79,653.09 1020.69,654.10 C1023.35,655.52 1023.64,657.77 1021.53,660.56 C1019.78,662.88 1019.59,666.37 1021.08,669.15 C1021.68,670.26 1022.00,671.33 1021.80,671.53 C1021.60,671.73 1018.31,672.39 1014.47,673.00 C1006.11,674.32 999.14,677.36 991.50,683.00 C982.97,689.30 976.00,692.15 968.07,692.55 C959.36,693.00 951.84,696.29 945.58,702.37 C940.40,707.41 940.52,707.36 937.27,705.79 Z" fill="#fff"/>
</g>
</svg>